<mxfile host="app.diagrams.net" modified="2023-04-30T06:50:26.069Z" agent="Mozilla/5.0 (Macintosh; Intel Mac OS X 10_15_7) AppleWebKit/605.1.15 (KHTML, like Gecko) Version/16.4 Safari/605.1.15" version="21.2.3" etag="rZcNZy67kSqZ49Fxhjdg" type="github">
  <diagram name="Page-1" id="7oC8esP51tHyWvmBuMXx">
    <mxGraphModel>
      <root>
        <mxCell id="0" />
        <mxCell id="1" parent="0" />
      </root>
    </mxGraphModel>
  </diagram>
</mxfile>
